<svg xmlns = "http://www.w3.org/2000/svg" width = "1000" height = "1000">
<g>
<polygon points = "559.996, 741.671 761.389, 998.749 443.612, 998.749 "
fill = "none" stroke = "black"/>
</g>
<g>
<polygon points = "764.077, 998.749 761.389, 998.749 559.996, 741.671 548.449, 691.324 643.038, 611.908 864.867, 735.156 "
fill = "none" stroke = "black"/>
</g>
<g>
<polygon points = "52.550, 233.105 715.701, 410.988 740.616, 438.931 643.038, 611.908 548.449, 691.324 332.691, 640.873 273.270, 598.248 "
fill = "none" stroke = "black"/>
</g>
<g>
<polygon points = "895.962, 389.831 895.962, 741.689 864.867, 735.156 643.038, 611.908 740.616, 438.931 "
fill = "none" stroke = "black"/>
</g>
<g>
<polygon points = "602.997, 177.160 895.962, 177.160 895.962, 389.831 740.616, 438.931 715.701, 410.988 "
fill = "none" stroke = "black"/>
</g>
<g>
<polygon points = "895.962, 741.689 895.962, 998.749 764.077, 998.749 864.867, 735.156 "
fill = "none" stroke = "black"/>
</g>
<g>
<polygon points = "14.985, 187.034 14.985, 177.160 602.997, 177.160 715.701, 410.988 52.550, 233.105 "
fill = "none" stroke = "black"/>
</g>
<g>
<polygon points = "14.985, 847.025 14.985, 187.034 52.550, 233.105 273.270, 598.248 "
fill = "none" stroke = "black"/>
</g>
<g>
<polygon points = "332.691, 640.873 548.449, 691.324 559.996, 741.671 443.612, 998.749 231.918, 998.749 "
fill = "none" stroke = "black"/>
</g>
<g>
<polygon points = "14.985, 998.749 14.985, 847.025 273.270, 598.248 332.691, 640.873 231.918, 998.749 "
fill = "none" stroke = "black"/>
</g>
</svg>
